HIERARCHY
ROOT Hips
{
  OFFSET 0.0000 0.0000 0.0000
  CHANNELS 6 Xposition Yposition Zposition Zrotation Xrotation Yrotation
  JOINT Chest
  {
    OFFSET 0.0415 6.2451 0.0203
    CHANNELS 3 Zrotation Xrotation Yrotation
    JOINT Chest2
    {
      OFFSET 0.0118 22.5192 -0.7792
      CHANNELS 3 Zrotation Xrotation Yrotation
      JOINT LeftCollar
      {
        OFFSET -0.3300 25.0202 0.8579
        CHANNELS 3 Zrotation Xrotation Yrotation
        JOINT LeftShoulder
        {
          OFFSET 15.6466 -3.5590 0.4633
          CHANNELS 3 Zrotation Xrotation Yrotation
          JOINT LeftElbow
          {
            OFFSET 6.7754 -28.9612 2.1049
            CHANNELS 3 Zrotation Xrotation Yrotation
            JOINT LeftWrist
            {
              OFFSET 5.9027 -23.6186 1.7304
              CHANNELS 3 Zrotation Xrotation Yrotation
              End Site
              {
                  OFFSET 3.1558 -12.6376 1.4914
              }
            }
          }
        }
      }
      JOINT RightCollar
      {
        OFFSET -0.3300 25.0202 0.8579
        CHANNELS 3 Zrotation Xrotation Yrotation
        JOINT RightShoulder
        {
          OFFSET -16.4539 -3.5322 0.3872
          CHANNELS 3 Zrotation Xrotation Yrotation
          JOINT RightElbow
          {
            OFFSET -4.8221 -28.1315 1.8729
            CHANNELS 3 Zrotation Xrotation Yrotation
            JOINT RightWrist
            {
              OFFSET -4.8043 -24.5954 1.9632
              CHANNELS 3 Zrotation Xrotation Yrotation
              End Site
              {
                  OFFSET -2.1004 -12.6180 1.5621
              }
            }
          }
        }
      }
      JOINT Neck
      {
        OFFSET -0.3300 25.0202 0.8579
        CHANNELS 3 Zrotation Xrotation Yrotation
        JOINT Head
        {
          OFFSET 0.0109 7.8688 4.0098
          CHANNELS 3 Zrotation Xrotation Yrotation
          End Site
          {
              OFFSET 0.0148 21.3157 0.1776
          }
        }
      }
    }
  }
  JOINT LeftHip
  {
    OFFSET 10.8348 -0.5413 6.5943
    CHANNELS 3 Zrotation Xrotation Yrotation
    JOINT LeftKnee
    {
      OFFSET 0.3095 -50.5329 1.7518
      CHANNELS 3 Zrotation Xrotation Yrotation
      JOINT LeftAnkle
      {
        OFFSET -0.0684 -39.6946 -5.8746
        CHANNELS 3 Zrotation Xrotation Yrotation
        End Site
        {
            OFFSET -0.2318 -8.9919 20.0380
        }
      }
    }
  }
  JOINT RightHip
  {
    OFFSET -11.3246 -0.4989 6.1982
    CHANNELS 3 Zrotation Xrotation Yrotation
    JOINT RightKnee
    {
      OFFSET -0.7161 -50.1472 3.0584
      CHANNELS 3 Zrotation Xrotation Yrotation
      JOINT RightAnkle
      {
        OFFSET -0.2903 -40.3705 -6.6390
        CHANNELS 3 Zrotation Xrotation Yrotation
        End Site
        {
            OFFSET -0.3795 -8.9623 20.5761
        }
      }
    }
  }
}
MOTION
Frames:	25
Frame Time:	0.033333
36.3658 100.4874 -36.0429 0.59 0.40 -9.53 -0.23 5.23 -0.45 -0.25 5.23 -0.44 -5.16 0.11 -1.10 16.37 5.03 -45.17 4.08 -11.40 -2.74 -9.95 -7.56 19.91 8.14 0.05 0.47 -23.79 6.81 47.00 -8.46 -12.64 3.11 1.31 -7.71 -22.91 3.62 -2.43 -6.38 3.63 -2.43 -6.38 -0.86 -3.09 15.10 -0.68 14.63 0.16 1.13 -13.45 11.86 -2.50 -9.68 4.86 -0.36 17.44 0.25 2.70 -8.57 -8.73 
36.1467 100.5030 -36.1990 0.42 -0.37 -8.16 -0.26 5.97 -1.31 -0.28 5.96 -1.30 -4.67 0.05 -0.54 15.90 4.22 -44.51 4.07 -11.56 -2.77 -10.01 -7.24 19.45 8.29 0.14 1.11 -23.68 6.08 47.46 -8.47 -12.45 3.07 1.17 -8.36 -25.00 3.97 -2.81 -6.29 3.98 -2.81 -6.28 -0.93 -2.34 13.55 -0.61 14.17 0.15 1.12 -12.96 12.05 -2.60 -8.51 3.67 -0.33 16.93 0.19 2.61 -8.38 -8.88 
36.0980 100.5059 -36.2621 0.41 -0.33 -7.96 -0.25 6.02 -1.43 -0.27 6.01 -1.42 -4.61 0.04 -0.36 15.87 4.03 -44.59 4.06 -11.65 -2.80 -9.98 -7.05 19.15 8.34 0.16 1.21 -23.69 5.95 47.32 -8.47 -12.53 3.09 1.40 -8.39 -25.08 4.06 -2.88 -6.21 4.06 -2.88 -6.21 -0.88 -2.45 13.42 -0.61 14.20 0.15 1.10 -12.92 11.98 -2.57 -8.54 3.57 -0.32 16.92 0.19 2.59 -8.37 -8.98 
36.0494 100.5089 -36.3251 0.39 -0.29 -7.76 -0.24 6.07 -1.56 -0.26 6.07 -1.55 -4.55 0.02 -0.19 15.85 3.85 -44.66 4.05 -11.75 -2.82 -9.94 -6.86 18.85 8.39 0.18 1.32 -23.70 5.82 47.18 -8.46 -12.61 3.10 1.62 -8.42 -25.15 4.14 -2.95 -6.14 4.14 -2.95 -6.14 -0.84 -2.56 13.30 -0.60 14.26 0.14 1.08 -12.89 11.91 -2.54 -8.58 3.48 -0.32 16.91 0.19 2.56 -8.36 -9.09 
36.0603 100.4991 -36.3541 0.42 -0.25 -7.70 -0.23 6.06 -1.56 -0.25 6.06 -1.54 -4.53 0.02 -0.20 15.77 3.79 -44.71 4.05 -11.75 -2.82 -9.88 -6.85 18.77 8.44 0.19 1.37 -23.82 5.85 47.21 -8.46 -12.62 3.10 1.57 -8.41 -25.12 4.07 -2.95 -6.14 4.07 -2.95 -6.13 -0.87 -2.66 13.28 -0.60 14.29 0.14 1.08 -12.89 11.89 -2.55 -8.67 3.62 -0.32 17.01 0.20 2.57 -8.42 -9.28 
36.0713 100.4894 -36.3831 0.45 -0.20 -7.63 -0.20 6.03 -1.55 -0.21 6.03 -1.54 -4.46 0.02 -0.22 15.69 3.73 -44.75 4.05 -11.74 -2.82 -9.82 -6.83 18.68 8.50 0.19 1.42 -23.95 5.88 47.24 -8.46 -12.66 3.11 1.52 -8.41 -25.08 4.00 -2.95 -6.13 4.00 -2.95 -6.13 -0.90 -2.76 13.26 -0.59 14.36 0.14 1.08 -12.91 11.82 -2.56 -8.77 3.75 -0.32 17.10 0.21 2.57 -8.47 -9.47 
36.0843 100.4862 -36.3974 0.47 -0.17 -7.50 -0.19 6.03 -1.57 -0.20 6.03 -1.56 -4.43 0.03 -0.28 15.63 3.73 -44.73 4.06 -11.72 -2.81 -9.79 -7.00 18.97 8.57 0.19 1.40 -24.12 5.96 47.42 -8.46 -12.66 3.11 1.50 -8.50 -25.27 3.93 -2.93 -6.07 3.93 -2.93 -6.06 -0.94 -2.83 13.09 -0.59 14.38 0.13 1.10 -12.90 11.85 -2.58 -8.79 3.79 -0.32 17.12 0.22 2.59 -8.51 -9.65 
36.0973 100.4830 -36.4117 0.49 -0.14 -7.37 -0.15 6.02 -1.61 -0.17 6.02 -1.60 -4.39 0.03 -0.33 15.58 3.73 -44.71 4.06 -11.66 -2.80 -9.76 -7.17 19.26 8.64 0.19 1.37 -24.30 6.04 47.59 -8.46 -12.64 3.11 1.47 -8.58 -25.45 3.87 -2.92 -6.01 3.87 -2.92 -6.00 -0.98 -2.90 12.92 -0.57 14.42 0.13 1.14 -12.88 11.92 -2.60 -8.82 3.84 -0.32 17.18 0.23 2.60 -8.55 -9.84 
36.0984 100.4791 -36.3925 0.45 -0.17 -7.17 -0.10 6.05 -1.57 -0.12 6.04 -1.56 -4.46 0.05 -0.54 15.69 3.83 -44.64 4.05 -11.79 -2.83 -9.66 -7.16 19.43 8.69 0.15 1.13 -24.34 6.11 47.65 -8.47 -12.55 3.09 1.73 -8.63 -25.51 3.85 -2.95 -5.93 3.85 -2.95 -5.92 -0.97 -2.87 12.75 -0.57 14.42 0.12 1.15 -12.88 11.92 -2.61 -8.72 3.66 -0.32 17.15 0.22 2.61 -8.55 -9.84 
36.0995 100.4752 -36.3732 0.41 -0.21 -6.98 -0.05 6.07 -1.54 -0.06 6.06 -1.53 -4.52 0.07 -0.75 15.80 3.93 -44.57 4.04 -11.93 -2.86 -9.55 -7.16 19.60 8.75 0.12 0.88 -24.38 6.19 47.71 -8.47 -12.45 3.07 1.99 -8.69 -25.58 3.83 -2.98 -5.84 3.83 -2.98 -5.84 -0.97 -2.84 12.58 -0.56 14.44 0.12 1.17 -12.88 11.89 -2.62 -8.62 3.48 -0.32 17.08 0.21 2.63 -8.57 -9.84 
36.1091 100.4731 -36.3252 0.38 -0.33 -6.75 0.01 6.14 -1.48 -0.01 6.14 -1.47 -4.60 0.08 -0.96 15.87 3.99 -44.43 4.03 -12.09 -2.90 -9.43 -6.89 19.24 8.71 0.09 0.72 -24.19 6.33 47.36 -8.48 -12.29 3.04 2.28 -8.56 -25.26 3.71 -3.07 -5.77 3.72 -3.08 -5.77 -0.97 -2.68 12.45 -0.56 14.42 0.12 1.18 -12.86 11.80 -2.65 -8.38 3.27 -0.32 16.98 0.20 2.64 -8.57 -9.84 
36.1188 100.4710 -36.2773 0.34 -0.46 -6.52 0.06 6.22 -1.42 0.04 6.21 -1.40 -4.67 0.10 -1.17 15.94 4.05 -44.29 4.02 -12.26 -2.94 -9.31 -6.63 18.88 8.68 0.07 0.55 -23.99 6.47 47.01 -8.49 -12.13 3.02 2.56 -8.43 -24.94 3.60 -3.17 -5.70 3.60 -3.17 -5.70 -0.98 -2.53 12.32 -0.55 14.34 0.11 1.19 -12.85 11.70 -2.69 -8.13 3.06 -0.31 16.88 0.19 2.67 -8.58 -9.84 
36.1077 100.4651 -36.2253 0.32 -0.51 -6.35 0.07 6.24 -1.41 0.05 6.23 -1.39 -4.75 0.10 -1.12 16.04 4.05 -44.31 4.02 -12.27 -2.95 -9.17 -6.60 18.61 8.56 0.07 0.61 -23.61 6.63 46.46 -8.50 -12.04 3.00 2.59 -8.12 -24.24 3.46 -3.20 -5.69 3.46 -3.20 -5.69 -0.95 -2.46 12.30 -0.55 14.35 0.11 1.18 -12.88 11.55 -2.67 -8.00 3.12 -0.31 16.86 0.19 2.67 -8.63 -10.05 
36.0966 100.4592 -36.1733 0.30 -0.56 -6.18 0.11 6.30 -1.38 0.09 6.29 -1.36 -4.82 0.10 -1.06 16.14 4.06 -44.33 4.02 -12.31 -2.95 -9.04 -6.58 18.35 8.45 0.08 0.67 -23.23 6.79 45.90 -8.50 -11.95 2.98 2.62 -7.81 -23.53 3.31 -3.24 -5.68 3.31 -3.24 -5.67 -0.93 -2.40 12.28 -0.55 14.39 0.11 1.17 -12.90 11.39 -2.65 -7.86 3.18 -0.31 16.82 0.18 2.67 -8.68 -10.25 
36.0545 100.4500 -36.1122 0.25 -0.53 -5.98 0.14 6.29 -1.43 0.12 6.28 -1.41 -4.87 0.09 -0.98 16.22 4.15 -44.41 4.02 -12.29 -2.95 -9.12 -6.59 18.41 8.39 0.08 0.67 -23.13 6.84 46.23 -8.51 -11.79 2.95 2.69 -7.85 -23.70 3.22 -3.06 -5.67 3.22 -3.06 -5.67 -0.85 -2.43 12.24 -0.55 14.47 0.11 1.14 -12.97 11.22 -2.62 -7.80 3.03 -0.31 16.82 0.18 2.65 -8.76 -10.29 
36.0124 100.4408 -36.0512 0.21 -0.50 -5.78 0.17 6.27 -1.48 0.15 6.27 -1.46 -4.92 0.08 -0.89 16.31 4.24 -44.50 4.02 -12.24 -2.94 -9.20 -6.60 18.47 8.32 0.08 0.68 -23.04 6.89 46.55 -8.52 -11.63 2.93 2.75 -7.89 -23.86 3.13 -2.87 -5.66 3.13 -2.88 -5.66 -0.77 -2.47 12.21 -0.55 14.55 0.11 1.11 -13.04 11.06 -2.58 -7.75 2.88 -0.31 16.82 0.17 2.64 -8.83 -10.32 
36.0006 100.4443 -35.9902 0.22 -0.43 -5.62 0.17 6.25 -1.47 0.15 6.24 -1.46 -4.93 0.09 -0.91 16.32 4.36 -44.55 4.02 -12.23 -2.94 -9.44 -6.37 18.83 8.32 0.08 0.65 -23.05 6.93 46.49 -8.52 -11.69 2.94 2.92 -8.00 -24.17 3.03 -2.67 -5.40 3.04 -2.67 -5.39 -0.79 -2.52 12.10 -0.55 14.56 0.11 1.10 -13.05 11.03 -2.65 -7.76 2.52 -0.31 16.83 0.18 2.65 -8.88 -10.12 
35.9888 100.4478 -35.9291 0.23 -0.35 -5.47 0.16 6.17 -1.45 0.15 6.16 -1.44 -4.96 0.09 -0.98 16.32 4.47 -44.60 4.02 -12.19 -2.93 -9.68 -6.14 19.20 8.33 0.07 0.59 -23.06 6.96 46.43 -8.52 -11.75 2.95 3.09 -8.11 -24.47 2.94 -2.46 -5.14 2.94 -2.46 -5.13 -0.80 -2.57 11.99 -0.55 14.59 0.11 1.09 -13.08 10.96 -2.71 -7.78 2.15 -0.31 16.84 0.19 2.66 -8.94 -9.92 
36.0108 100.4523 -35.8839 0.31 -0.22 -5.57 0.12 6.12 -1.27 0.10 6.12 -1.25 -4.99 0.10 -1.04 16.30 4.48 -44.60 4.03 -12.18 -2.92 -9.79 -6.15 19.47 8.34 0.07 0.58 -23.00 6.96 46.06 -8.51 -11.81 2.96 2.87 -7.98 -24.13 2.85 -2.36 -4.77 2.85 -2.36 -4.76 -0.86 -2.65 12.12 -0.55 14.57 0.11 1.09 -13.09 10.94 -2.75 -7.95 2.29 -0.32 16.94 0.22 2.67 -9.01 -9.99 
36.0327 100.4568 -35.8388 0.38 -0.09 -5.67 0.08 6.08 -1.08 0.06 6.08 -1.07 -5.01 0.10 -1.09 16.22 4.52 -44.59 4.03 -12.15 -2.92 -9.90 -6.16 19.74 8.39 0.07 0.56 -22.94 6.95 45.69 -8.51 -11.88 2.97 2.64 -7.85 -23.79 2.77 -2.27 -4.40 2.77 -2.27 -4.40 -0.92 -2.73 12.24 -0.55 14.51 0.11 1.09 -13.13 10.90 -2.79 -8.12 2.44 -0.33 17.04 0.25 2.67 -9.09 -10.06 
36.0119 100.4474 -35.7017 0.37 -0.25 -5.57 0.09 6.22 -0.98 0.07 6.21 -0.96 -4.97 0.11 -1.14 16.05 4.44 -44.62 4.04 -12.02 -2.88 -10.10 -6.51 19.92 8.29 0.04 0.40 -22.99 6.81 46.16 -8.51 -11.86 2.97 2.46 -7.90 -23.75 2.65 -2.16 -4.25 2.65 -2.16 -4.24 -0.94 -2.45 12.19 -0.55 14.40 0.11 1.09 -13.14 10.88 -2.75 -7.81 2.65 -0.33 16.98 0.26 2.66 -9.18 -10.37 
35.9911 100.4380 -35.5647 0.36 -0.42 -5.48 0.11 6.35 -0.87 0.09 6.35 -0.85 -4.92 0.11 -1.18 15.88 4.36 -44.64 4.05 -11.88 -2.85 -10.29 -6.87 20.10 8.19 0.02 0.24 -23.03 6.67 46.63 -8.51 -11.79 2.95 2.28 -7.95 -23.72 2.54 -2.06 -4.09 2.54 -2.05 -4.09 -0.95 -2.16 12.14 -0.56 14.29 0.12 1.06 -13.17 10.81 -2.72 -7.51 2.86 -0.34 16.91 0.28 2.64 -9.26 -10.69 
35.9287 100.4253 -35.3587 0.39 -0.70 -5.03 0.11 6.53 -0.86 0.09 6.53 -0.85 -4.78 0.12 -1.37 15.71 4.29 -44.73 4.05 -11.76 -2.82 -10.41 -6.94 20.06 8.15 -0.03 -0.09 -23.10 6.53 46.87 -8.51 -11.81 2.96 2.18 -7.81 -23.33 2.38 -1.90 -3.96 2.38 -1.90 -3.95 -1.03 -1.68 11.76 -0.56 14.05 0.12 1.02 -13.12 10.73 -2.82 -7.02 2.57 -0.34 16.92 0.28 2.64 -9.47 -10.85 
35.8664 100.4125 -35.1527 0.42 -0.99 -4.59 0.11 6.72 -0.85 0.09 6.71 -0.84 -4.64 0.13 -1.55 15.54 4.22 -44.82 4.06 -11.64 -2.79 -10.53 -7.02 20.02 8.12 -0.08 -0.43 -23.18 6.40 47.11 -8.51 -11.89 2.97 2.08 -7.67 -22.94 2.22 -1.75 -3.82 2.22 -1.75 -3.82 -1.12 -1.21 11.38 -0.55 13.81 0.13 0.99 -13.07 10.65 -2.92 -6.54 2.28 -0.36 16.95 0.30 2.65 -9.67 -11.02 
35.8094 100.4015 -34.9552 0.49 -0.94 -4.36 0.10 6.71 -0.69 0.08 6.71 -0.68 -4.60 0.16 -1.86 15.44 4.27 -44.62 4.06 -11.71 -2.81 -10.28 -6.63 19.44 8.17 -0.12 -0.74 -23.42 6.41 47.50 -8.51 -11.91 2.98 1.97 -7.75 -23.13 2.01 -1.59 -3.51 2.01 -1.59 -3.51 -1.15 -1.10 11.38 -0.55 13.72 0.13 0.92 -13.12 10.41 -2.97 -6.51 2.22 -0.38 17.15 0.32 2.65 -9.95 -11.23 
